<svg width="1440" height="699" viewBox="0 0 1440 699" fill="none" xmlns="http://www.w3.org/2000/svg">
<path fill-rule="evenodd" clip-rule="evenodd" d="M1337.1 -253.468C1454.28 -133.23 1496.46 49.7039 1479.62 216.758C1462.58 385.798 1389.16 564.707 1245.49 655.44C1109.3 741.456 934.907 672.299 774.143 662.313C658.659 655.139 554.145 626.287 440.337 605.425C274.205 574.971 63.4229 641.555 -45.0811 512.14C-151.027 385.775 -104.286 182.438 -42.5034 29.5291C11.5149 -104.163 155.93 -165.297 266.189 -258.234C360.003 -337.308 433.313 -450.263 553.854 -473.137C674.201 -495.974 781.646 -411.504 899.581 -378.428C1049.28 -336.443 1228.6 -364.805 1337.1 -253.468Z" fill="#EEEEEE" fill-opacity="0.5"/>
</svg>
